<?xml version="1.0" encoding="iso-8859-1"?>
<!-- Generator: Adobe Illustrator 19.1.0, SVG Export Plug-In . SVG Version: 6.00 Build 0)  -->
<svg xmlns="http://www.w3.org/2000/svg" xmlns:xlink="http://www.w3.org/1999/xlink" version="1.1" id="Capa_1" x="0px" y="0px" viewBox="0 0 487.55 487.55" style="enable-background:new 0 0 487.55 487.55;" xml:space="preserve" width="512px" height="512px">
<g>
	<g id="XMLID_33_">
		<path id="XMLID_50_" d="M481.325,227.515c-224.8-258.6-428-53.9-476.4,2.8c-6.5,7.6-6.6,18.8-0.1,26.4    c221.9,259,423.4,64.6,476.5,3.7C489.625,251.015,489.625,237.015,481.325,227.515z M329.825,250.715c-3.3,41.4-36.8,75-78.3,78.3    c-52.7,4.2-96.3-39.5-92.1-92.1c3.3-41.4,36.8-75,78.3-78.3C290.325,154.415,333.925,198.115,329.825,250.715z" fill="#0000cd"/>
		<path id="XMLID_34_" d="M244.625,188.615c-30.4,0-55.2,24.8-55.2,55.2c0,7.3,5.9,13.2,13.2,13.2s13.2-5.9,13.2-13.2    c0-15.9,12.9-28.8,28.8-28.8c7.3,0,13.2-5.9,13.2-13.2S251.825,188.615,244.625,188.615z" fill="#0000cd"/>
	</g>
</g>
<g>
</g>
<g>
</g>
<g>
</g>
<g>
</g>
<g>
</g>
<g>
</g>
<g>
</g>
<g>
</g>
<g>
</g>
<g>
</g>
<g>
</g>
<g>
</g>
<g>
</g>
<g>
</g>
<g>
</g>
</svg>
