<?xml version="1.0" encoding="iso-8859-1"?>
<!-- Generator: Adobe Illustrator 19.0.0, SVG Export Plug-In . SVG Version: 6.00 Build 0)  -->
<svg xmlns="http://www.w3.org/2000/svg" xmlns:xlink="http://www.w3.org/1999/xlink" version="1.1" id="Capa_1" x="0px" y="0px" viewBox="0 0 483.9 483.9" style="enable-background:new 0 0 483.9 483.9;" xml:space="preserve" width="512px" height="512px">
<g>
	<g>
		<g>
			<path d="M416.6,151.6C408.8,66.8,333.5,0,241.9,0C150.4,0,75.1,66.8,67.2,151.6c-15.6,8.7-25.9,25.4-25.9,44v237.9     c0,28.2,23.2,50.4,50.4,50.4h300.5c28.2,0,50.4-22.2,50.4-50.4V195.6C442.5,176.5,431.9,160.2,416.6,151.6z M241.9,40.4     c66.9,0,122.4,45.4,133.2,104.9H108.7C119.5,85.7,175,40.4,241.9,40.4z M402.2,434.6c0,6-5,10.1-10.1,10.1H91.7     c-6,0-10.1-5-10.1-10.1v-238c0-6,5-10.1,10.1-10.1v-1h300.5c6,0,10.1,5,10.1,10.1v239H402.2z" fill="#0000cd"/>
			<path d="M241.9,248c-30.2,0-54.4,24.2-54.4,54.4c0,23.1,14.1,42.7,34.3,50.6v40.1c0,11.1,9.1,20.2,20.2,20.2     c11.1,0,20.2-9.1,20.2-20.2V353c20.2-8,34.3-27.5,34.3-50.6C296.3,272.2,272.1,248,241.9,248z M241.9,288.4     c8.1,0,14.1,6,14.1,14.1s-6,14.1-14.1,14.1s-14.1-6-14.1-14.1S233.8,288.4,241.9,288.4z" fill="#0000cd"/>
		</g>
	</g>
</g>
<g>
</g>
<g>
</g>
<g>
</g>
<g>
</g>
<g>
</g>
<g>
</g>
<g>
</g>
<g>
</g>
<g>
</g>
<g>
</g>
<g>
</g>
<g>
</g>
<g>
</g>
<g>
</g>
<g>
</g>
</svg>
